<?xml version="1.0" encoding="utf-8"?>
<svg width="25" height="25" viewBox="0 0 25 40" version="1.1" xmlns:xlink="http://www.w3.org/1999/xlink" xmlns="http://www.w3.org/2000/svg" fill="red">
  <defs>
    <path d="M332 -2459L332 -2459L332 -2419L292 -2419L292 -2459L332 -2459Z" id="path_1" />
    <clipPath id="clip_1">
      <use xlink:href="#path_1" clip-rule="evenodd" fill-rule="evenodd" />
    </clipPath>
  </defs>
  <g id="Search 2">
    <path d="M332 -2459L332 -2459L332 -2419L292 -2419L292 -2459L332 -2459Z" id="Search-2" fill="none" stroke="none" />
    <path d="M16.8 2.4C9.28125 2.4 3.2 8.48125 3.2 16C3.2 23.5188 9.28125 29.6 16.8 29.6C19.4844 29.6 21.9688 28.8125 24.075 27.475L33.9 37.3L37.3 33.9L27.6 24.225C29.3438 21.9375 30.4 19.1031 30.4 16C30.4 8.48125 24.3188 2.4 16.8 2.4L16.8 2.4ZM16.8 5.6C22.5594 5.6 27.2 10.2406 27.2 16C27.2 21.7594 22.5594 26.4 16.8 26.4C11.0406 26.4 6.4 21.7594 6.4 16C6.4 10.2406 11.0406 5.6 16.8 5.6L16.8 5.6Z" id="Shape" fill="#0000" fill-rule="evenodd" stroke="none" clip-path="url(#clip_1)" />
    <path d="M16.8 2.4C9.28125 2.4 3.2 8.48125 3.2 16C3.2 23.5188 9.28125 29.6 16.8 29.6C19.4844 29.6 21.9688 28.8125 24.075 27.475L33.9 37.3L37.3 33.9L27.6 24.225C29.3438 21.9375 30.4 19.1031 30.4 16C30.4 8.48125 24.3188 2.4 16.8 2.4L16.8 2.4ZM16.8 5.6C22.5594 5.6 27.2 10.2406 27.2 16C27.2 21.7594 22.5594 26.4 16.8 26.4C11.0406 26.4 6.4 21.7594 6.4 16C6.4 10.2406 11.0406 5.6 16.8 5.6L16.8 5.6Z" id="Shape" fill="#0000" fill-rule="evenodd" stroke="none" clip-path="url(#clip_1)" />
  </g>
</svg>